# xmcd
#
# Track frame offsets:
#	150
#	9780
#	30982
#	46953
#	79816
#	108503
#	125340
#	143195
#	158188
#	176613
#	205830
#	219616
#	234921
#	270657
#	300603
#
# Disc length: 4314
#
# Revision: 1
# Processed by: cddbd v1.5.1PL0 Copyright (c) Steve Scherf et al.
# Submitted via: CDex 1.51
# Normalized: r0:DSETVAR1
#
DISCID=be10d80f
DTITLE=Various Artist - jazz para hacer el amor
DYEAR=1999
DGENRE=Jazz
TTITLE0=chet baker - embraceable you
TTITLE1=duke pearson - after the rain
TTITLE2=dexter gordon - round mignight
TTITLE3=lee morgan - gob bless the child
TTITLE4=grant green - nancy (with the smiling face)
TTITLE5=miles davis - yesterdays
TTITLE6=wes montgomery - all the things you are
TTITLE7=lou donaldson - the things we did last summer
TTITLE8=nina simone - i got it bad (and that ain't good)
TTITLE9=billie holiday - lover come back to me
TTITLE10=nat king cole - i love you (for sentimental reasons)
TTITLE11=jacky terrason - i fall in love to easily
TTITLE12=john coltrane - i'm old fashioned
TTITLE13=charlie hunter - people
TTITLE14=earl klugh - the shadow of your smile
EXTD=YEAR: 1999
EXTT0=
EXTT1=
EXTT2=
EXTT3=
EXTT4=
EXTT5=
EXTT6=
EXTT7=
EXTT8=
EXTT9=
EXTT10=
EXTT11=
EXTT12=
EXTT13=
EXTT14=
PLAYORDER=
